<svg width="39" height="39" viewBox="0 0 39 39" fill="none" xmlns="http://www.w3.org/2000/svg">
<path fill-rule="evenodd" clip-rule="evenodd" d="M25.1497 35.4634V23.1848H29.2716L29.8883 18.4001H25.1481V15.3451C25.1481 13.9595 25.5333 13.0146 27.5214 13.0146H30.0548V8.73415C28.8279 8.60234 27.5947 8.53882 26.3609 8.54391C22.7082 8.54391 20.2081 10.7745 20.2081 14.8695V18.4001H16.0734V23.1848H20.2065V35.4634H5.14075C4.17367 35.4634 3.3905 34.6803 3.3905 33.7132V5.50635C3.3905 4.53927 4.17367 3.7561 5.14075 3.7561H33.3476C34.3146 3.7561 35.0978 4.53927 35.0978 5.50635V33.7132C35.0978 34.6803 34.3146 35.4634 33.3476 35.4634H25.1497Z" fill="#00A7E1"/>
</svg>
