<svg width="42" height="42" viewBox="0 0 42 42" fill="none" xmlns="http://www.w3.org/2000/svg">
<path d="M32.6321 5.15259C33.5431 5.15259 34.4168 5.51448 35.061 6.15866C35.7052 6.80284 36.0671 7.67654 36.0671 8.58755V32.6323C36.0671 33.5433 35.7052 34.417 35.061 35.0611C34.4168 35.7053 33.5431 36.0672 32.6321 36.0672H8.58743C7.67642 36.0672 6.80272 35.7053 6.15854 35.0611C5.51436 34.417 5.15247 33.5433 5.15247 32.6323V8.58755C5.15247 7.67654 5.51436 6.80284 6.15854 6.15866C6.80272 5.51448 7.67642 5.15259 8.58743 5.15259H32.6321ZM31.7734 31.7735V22.6709C31.7734 21.1859 31.1835 19.7618 30.1335 18.7118C29.0835 17.6618 27.6594 17.0719 26.1744 17.0719C24.7146 17.0719 23.0143 17.965 22.1899 19.3046V17.3982H17.3981V31.7735H22.1899V23.3063C22.1899 21.9839 23.2547 20.9019 24.5772 20.9019C25.2149 20.9019 25.8265 21.1552 26.2774 21.6061C26.7283 22.0571 26.9816 22.6686 26.9816 23.3063V31.7735H31.7734ZM11.8163 14.7018C12.5815 14.7018 13.3154 14.3978 13.8565 13.8567C14.3977 13.3156 14.7017 12.5817 14.7017 11.8164C14.7017 10.2192 13.4135 8.91387 11.8163 8.91387C11.0465 8.91387 10.3082 9.21967 9.76388 9.764C9.21955 10.3083 8.91375 11.0466 8.91375 11.8164C8.91375 13.4137 10.219 14.7018 11.8163 14.7018ZM14.2036 31.7735V17.3982H9.44617V31.7735H14.2036Z" fill="#00A7E1"/>
</svg>
