<svg width="39" height="39" viewBox="0 0 39 39" fill="none" xmlns="http://www.w3.org/2000/svg">
<path d="M20.9224 3.7561C22.706 3.76086 23.6112 3.77037 24.3928 3.79257L24.7004 3.80366C25.0555 3.81635 25.4058 3.8322 25.8291 3.85123C27.516 3.93049 28.6669 4.19684 29.6768 4.58842C30.7232 4.9911 31.6046 5.53647 32.4861 6.41635C33.2926 7.20861 33.9164 8.16734 34.314 9.22562C34.7056 10.2355 34.9719 11.3865 35.0512 13.0749C35.0702 13.4966 35.0861 13.847 35.0988 14.2037L35.1083 14.5112C35.1321 15.2912 35.1416 16.1965 35.1447 17.98L35.1463 19.1627V21.2395C35.1502 22.3959 35.138 23.5523 35.1099 24.7083L35.1004 25.0159C35.0877 25.3726 35.0718 25.7229 35.0528 26.1446C34.9735 27.8331 34.704 28.9824 34.314 29.9939C33.9164 31.0522 33.2926 32.0109 32.4861 32.8032C31.6938 33.6096 30.7351 34.2335 29.6768 34.6311C28.6669 35.0227 27.516 35.289 25.8291 35.3683L24.7004 35.4159L24.3928 35.4254C23.6112 35.4476 22.706 35.4587 20.9224 35.4618L19.7397 35.4634H17.6645C16.5076 35.4675 15.3507 35.4553 14.1941 35.427L13.8866 35.4174C13.5102 35.4032 13.134 35.3868 12.7578 35.3683C11.071 35.289 9.91999 35.0227 8.90852 34.6311C7.85082 34.2333 6.89264 33.6095 6.10084 32.8032C5.2938 32.0111 4.66943 31.0523 4.27133 29.9939C3.87974 28.984 3.6134 27.8331 3.53413 26.1446L3.48657 25.0159L3.47865 24.7083C3.44942 23.5523 3.43621 22.3959 3.43901 21.2395V17.98C3.43462 16.8236 3.44625 15.6673 3.47389 14.5112L3.48499 14.2037C3.49767 13.847 3.51352 13.4966 3.53255 13.0749C3.61182 11.3865 3.87816 10.2371 4.26974 9.22562C4.66877 8.16691 5.29424 7.20814 6.10243 6.41635C6.89377 5.61027 7.85138 4.98646 8.90852 4.58842C9.91999 4.19684 11.0694 3.93049 12.7578 3.85123C13.1795 3.8322 13.5315 3.81635 13.8866 3.80366L14.1941 3.79415C15.3502 3.76598 16.5065 3.75383 17.6629 3.75769L20.9224 3.7561ZM19.2927 11.6829C17.1903 11.6829 15.1741 12.5181 13.6876 14.0046C12.201 15.4912 11.3658 17.5074 11.3658 19.6098C11.3658 21.7121 12.201 23.7283 13.6876 25.2149C15.1741 26.7014 17.1903 27.5366 19.2927 27.5366C21.395 27.5366 23.4112 26.7014 24.8978 25.2149C26.3844 23.7283 27.2195 21.7121 27.2195 19.6098C27.2195 17.5074 26.3844 15.4912 24.8978 14.0046C23.4112 12.5181 21.395 11.6829 19.2927 11.6829ZM19.2927 14.8537C19.9172 14.8536 20.5357 14.9765 21.1128 15.2154C21.6899 15.4543 22.2143 15.8046 22.656 16.2461C23.0977 16.6877 23.4481 17.212 23.6872 17.789C23.9263 18.3659 24.0495 18.9844 24.0496 19.609C24.0497 20.2335 23.9267 20.852 23.6878 21.4291C23.4489 22.0062 23.0987 22.5306 22.6571 22.9723C22.2155 23.414 21.6913 23.7644 21.1143 24.0035C20.5373 24.2426 19.9188 24.3658 19.2943 24.3659C18.0329 24.3659 16.8231 23.8648 15.9312 22.9728C15.0392 22.0809 14.5382 20.8712 14.5382 19.6098C14.5382 18.3484 15.0392 17.1386 15.9312 16.2467C16.8231 15.3548 18.0329 14.8537 19.2943 14.8537M27.6174 9.30488C27.0918 9.30488 26.5878 9.51367 26.2161 9.88531C25.8445 10.257 25.6357 10.761 25.6357 11.2866C25.6357 11.8122 25.8445 12.3162 26.2161 12.6879C26.5878 13.0595 27.0918 13.2683 27.6174 13.2683C28.143 13.2683 28.6471 13.0595 29.0187 12.6879C29.3903 12.3162 29.5991 11.8122 29.5991 11.2866C29.5991 10.761 29.3903 10.257 29.0187 9.88531C28.6471 9.51367 28.143 9.30488 27.6174 9.30488Z" fill="#00A7E1"/>
</svg>
